<?xml version="1.0" standalone="no"?>
<!DOCTYPE svg PUBLIC "-//W3C//DTD SVG 1.1//EN" "http://www.w3.org/Graphics/SVG/1.1/DTD/svg11.dtd" >
<svg xmlns="http://www.w3.org/2000/svg">
<metadata>
This is a custom SVG webfont generated by Font Squirrel.
Copyright   : Copyright c 2005 Typodermic Fonts This font is not freely distributable Visit typodermiccom for more info
Designer    : Ray Larabie
Foundry     : Ray Larabie
Foundry URL : httpwwwtypodermiccom
</metadata>
<defs>
<font id="webfontBZGc47Cg" horiz-adv-x="1210" >
<font-face units-per-em="2048" ascent="1573" descent="-475" />
<missing-glyph horiz-adv-x="653" />
<glyph unicode=" "  horiz-adv-x="653" />
<glyph unicode="&#x09;" horiz-adv-x="653" />
<glyph unicode="&#xa0;" horiz-adv-x="653" />
<glyph unicode="!" horiz-adv-x="348" d="M55 80q0 49 32 82t81 33q47 0 82 -34t35 -81t-34 -79t-83 -32t-81 32t-32 79zM68 1417h204l-36 -1050h-140z" />
<glyph unicode="&#x22;" horiz-adv-x="575" d="M61 1501h150l-29 -629h-98zM362 1501h150l-29 -629h-98z" />
<glyph unicode="#" horiz-adv-x="1148" d="M25 373v127h245l78 391h-244v129h269l76 397h133l-78 -397h278l78 397h133l-80 -397h203v-129h-227l-80 -391h227v-127h-252l-73 -373h-131l73 373h-278l-74 -373h-129l74 373h-221zM399 500h281l78 391h-281z" />
<glyph unicode="$" horiz-adv-x="937" d="M27 303l112 133q127 -127 328 -127q102 0 181 36t79 116t-63.5 129t-152.5 75.5t-179 58.5t-153.5 99.5t-63.5 173.5q0 115 79.5 186.5t202.5 90.5v143h168v-145q168 -31 271 -156l-129 -106q-84 100 -232 100q-80 0 -136 -27.5t-56 -83t47 -88.5q49 -35 133 -66l154 -57 q71 -25 138.5 -60.5t106.5 -98t39 -152.5q0 -150 -95 -230.5t-241 -99.5v-147h-168v145q-216 25 -370 158z" />
<glyph unicode="%" horiz-adv-x="1384" d="M45 1124q0 127 88 216.5t215 89.5t216 -90.5t89 -215.5q0 -127 -89 -216t-216 -89t-215 89t-88 216zM166 0l883 1415h155l-889 -1415h-149zM174 1122.5q0 -73.5 51 -124t123 -50.5q74 0 125 50.5t51 123.5q0 72 -51 124t-125 52t-124 -51t-50 -124.5zM723 291 q0 127 89 216t216 89t216 -89t89 -216t-89 -216t-216 -89t-216 89t-89 216zM854 289q0 -74 50 -124t124 -50t125 50t51 123.5t-51 124t-125 50.5t-124 -51t-50 -123z" />
<glyph unicode="&#x26;" horiz-adv-x="1331" d="M45 444q0 219 188 363q-90 125 -90 272.5t101.5 256t261.5 108.5q238 0 348 -160l-137 -149q-84 102 -209 102q-70 0 -116 -39t-46 -115q0 -137 173 -323.5t423 -364.5q70 96 80 277h205q-8 -252 -113 -391l184 -123l-104 -176l-209 141q-158 -152 -418 -152 q-240 0 -381 138t-141 335zM246 446q0 -115 85 -193.5t220 -78.5t248 80q-285 211 -447 389q-106 -88 -106 -197z" />
<glyph unicode="'" horiz-adv-x="260" d="M53 1501h150l-29 -629h-98z" />
<glyph unicode="(" horiz-adv-x="509" d="M35 532q0 467 278 883h154q-301 -389 -301 -883q0 -438 303 -878h-156q-278 415 -278 878z" />
<glyph unicode=")" horiz-adv-x="512" d="M37 -348q303 446 303 880q0 494 -301 883h154q279 -408 278 -883q0 -473 -278 -880h-156z" />
<glyph unicode="*" horiz-adv-x="843" d="M29 1073l51 158l256 -84v270h166v-270l256 84l51 -158l-258 -84l162 -217l-140 -104l-155 213l-154 -213l-139 104l162 217z" />
<glyph unicode="+" horiz-adv-x="757" d="M10 633v125h316v299h125v-299h288v-125h-288v-305h-125v305h-316z" />
<glyph unicode="," horiz-adv-x="364" d="M29 -262l139 416l174 -70l-188 -403z" />
<glyph unicode="-" horiz-adv-x="768" d="M66 457v166h630v-166h-630z" />
<glyph unicode="." horiz-adv-x="309" d="M45 76q0 45 28.5 76.5t76.5 31.5q43 0 75.5 -32.5t32.5 -75.5t-32.5 -74t-75.5 -31q-47 0 -76 30t-29 75z" />
<glyph unicode="/" horiz-adv-x="737" d="M10 -152l578 1567h137l-578 -1567h-137z" />
<glyph unicode="0" horiz-adv-x="1161" d="M47 706.5q0 354.5 145.5 547t385 192.5t386 -193.5t146.5 -546t-146.5 -544t-386 -191.5t-385 190.5t-145.5 545zM248 706.5q0 -264.5 87 -399.5t243 -135q158 0 244.5 135t86.5 399.5t-87 399.5t-244 135q-156 0 -243 -135t-87 -399.5z" />
<glyph unicode="1" horiz-adv-x="458" d="M33 1102v178q154 20 174 137h180v-1417h-205v1102h-149z" />
<glyph unicode="2" horiz-adv-x="1107" d="M53 0q18 260 104.5 432t280.5 295q33 20 93.5 50t106.5 55.5t93 59.5t72.5 78t25.5 97q0 86 -77.5 132t-186.5 46q-90 0 -179 -38t-146 -107l-146 145q84 94 211 147.5t254 53.5q197 0 338 -100.5t141 -284.5q0 -49 -12 -94t-28.5 -79t-49.5 -70t-56.5 -57.5t-70.5 -51 t-70 -42.5l-77 -42l-72 -39q-244 -145 -303 -383h748v-203h-994z" />
<glyph unicode="3" horiz-adv-x="1093" d="M37 166l129 156q59 -63 158.5 -97.5t183.5 -34.5q156 0 247 68t91 178q0 104 -67.5 171t-192.5 67h-142v190h125q84 0 136.5 53.5t52.5 135.5q0 86 -72 131t-166 45q-78 0 -152.5 -32t-115.5 -85l-131 148q57 84 164.5 127t234.5 43q180 0 305 -90.5t125 -258.5 q0 -209 -155 -293q111 -25 180 -123t69 -225q0 -205 -149.5 -329.5t-388.5 -124.5q-139 0 -265 48t-204 132z" />
<glyph unicode="4" horiz-adv-x="1161" d="M16 252v192l762 973h187v-966h143v-199h-143v-252h-205v252h-744zM248 444h512v652z" />
<glyph unicode="5" horiz-adv-x="1155" d="M43 162l131 160q160 -131 361 -132q170 0 267 86t97 230q0 139 -87 213t-214 74q-162 0 -305 -107l-170 70l65 661h791v-205h-623l-32 -307q137 80 297 80q211 0 346 -126t135 -355q0 -135 -49 -238.5t-134 -163t-185.5 -88t-213.5 -28.5q-270 0 -477 176z" />
<glyph unicode="6" horiz-adv-x="1171" d="M41 578q0 360 209 608q123 145 283.5 193t396.5 48q0 -133 -2 -200q-102 0 -179 -9.5t-161 -38t-143.5 -78.5t-107.5 -137t-75 -208q104 152 369 151q217 0 356 -124t139 -318q0 -201 -155.5 -339t-380.5 -138q-141 0 -251 49t-172.5 133t-94 187.5t-31.5 220.5zM250 467 q12 -121 99 -201t239 -80q158 0 249 81t91 198q0 115 -93.5 188.5t-238.5 73.5q-143 0 -237.5 -69.5t-108.5 -190.5z" />
<glyph unicode="7" horiz-adv-x="1071" d="M41 1212v205h997v-168q-227 -264 -339.5 -560t-155.5 -689h-205q45 387 143.5 694t290.5 518h-731z" />
<glyph unicode="8" horiz-adv-x="1169" d="M43 430q0 133 68.5 231.5t179.5 126.5q-154 84 -154 287q0 170 130 262.5t312.5 92.5t313.5 -90.5t131 -256.5q0 -211 -154 -295q109 -29 178.5 -128t69.5 -230q0 -197 -149.5 -320.5t-389 -123.5t-388 123.5t-148.5 320.5zM240 432q0 -102 93 -174t247 -72q156 0 249 71 t93 175q0 133 -83 192.5t-259 59.5q-340 0 -340 -252zM334 1063q0 -109 56 -160t190 -51q248 0 247 211q0 78 -74.5 123t-173 45t-172 -45t-73.5 -123z" />
<glyph unicode="9" horiz-adv-x="1169" d="M37 952q0 197 155.5 337.5t380.5 140.5q141 0 251 -49.5t172.5 -134.5t94 -188.5t31.5 -219.5q0 -174 -55 -333t-154 -274q-125 -147 -283.5 -194t-396.5 -47q0 133 3 198q104 0 180 8.5t159.5 37t142 78.5t107.5 137.5t76 209.5q-109 -152 -369 -151q-217 0 -356 124.5 t-139 319.5zM236 950q0 -115 93 -187.5t238 -72.5q141 0 236.5 70.5t109.5 187.5q-12 121 -99 201t-239 80q-158 0 -248.5 -81t-90.5 -198z" />
<glyph unicode=":" horiz-adv-x="325" d="M51 76q0 45 29 76.5t76 31.5q43 0 75.5 -32.5t32.5 -75.5t-32.5 -74t-75.5 -31q-47 0 -76 30t-29 75zM57 899q0 45 29 77t76 32q43 0 75.5 -33t32.5 -76t-32.5 -73.5t-75.5 -30.5q-47 0 -76 29.5t-29 74.5z" />
<glyph unicode=";" horiz-adv-x="372" d="M10 -262l140 416l174 -70l-189 -403zM117 899q0 43 30.5 76t73.5 33q45 0 77 -33t32 -76t-32 -73.5t-77 -30.5t-74.5 30.5t-29.5 73.5z" />
<glyph unicode="&#x3c;" horiz-adv-x="942" d="M2 633v123l891 321v-143l-705 -242l705 -241v-138z" />
<glyph unicode="=" horiz-adv-x="823" d="M66 434v125h729v-125h-729zM66 831v127h729v-127h-729z" />
<glyph unicode="&#x3e;" horiz-adv-x="962" d="M66 313v138l704 241l-704 242v143l890 -321v-123z" />
<glyph unicode="?" horiz-adv-x="905" d="M25 1280q176 150 411 150q190 0 311 -91.5t121 -269.5q0 -117 -46 -199t-132 -168q-82 -86 -117.5 -148t-40.5 -153h-190q10 176 86 287q31 45 98.5 118t104.5 131t37 124q0 86 -63.5 127t-164.5 41q-160 0 -293 -115zM315 80q0 49 32 82t81 33q47 0 82 -34t35 -81 t-34 -78t-83 -31t-81 31t-32 78z" />
<glyph unicode="@" horiz-adv-x="1452" d="M45 608q0 315 202 517t507 202q135 0 253.5 -38t212 -111.5t147.5 -194.5t54 -274q0 -188 -91 -303t-253 -115q-111 0 -166 86q-74 -59 -180 -60q-115 0 -184.5 79t-69.5 198q0 125 74 196.5t197 71.5q74 0 118 -33v39h121v-395q39 -63 113 -63q86 0 139 88t53 188 q0 246 -149.5 382t-370.5 136q-274 0 -436 -177t-162 -429q0 -236 129 -393q84 -104 189.5 -150.5t269.5 -68.5l-27 -127q-180 27 -307 85t-223 181q-160 200 -160 483zM598 594q0 -70 37 -116t96 -46q76 0 133 37v250q-66 31 -116 31q-74 0 -112 -44t-38 -112z" />
<glyph unicode="A" d="M10 0l506 1417h176l508 -1417h-227l-94 274h-551l-92 -274h-226zM385 469h436l-219 647z" />
<glyph unicode="B" horiz-adv-x="1161" d="M72 0v1417h546q170 0 275.5 -102.5t105.5 -267.5q0 -195 -153 -295q98 -23 180 -120t82 -239q0 -193 -123 -293t-340 -100h-573zM272 197h396q113 0 179 55t66 155.5t-81.5 163t-186.5 62.5h-373v-436zM272 815h351q72 0 128 64.5t56 140.5q0 86 -51 141.5t-133 55.5 h-351v-402z" />
<glyph unicode="C" horiz-adv-x="1183" d="M49 706.5q0 352.5 170 546t443 193.5q311 0 477 -258l-150 -119q-137 172 -334 172q-188 0 -294.5 -135t-106.5 -399q0 -260 107.5 -397.5t293.5 -137.5q201 0 324 158l149 -117q-178 -242 -466 -242q-274 0 -443.5 191.5t-169.5 544z" />
<glyph unicode="D" horiz-adv-x="1228" d="M72 0v1417h379q303 0 514 -203.5t211 -502.5q0 -297 -211 -504t-514 -207h-379zM276 201h177q217 0 365.5 144t148.5 364q0 223 -147.5 363t-366.5 140h-177v-1011z" />
<glyph unicode="E" horiz-adv-x="933" d="M72 0v1417h780v-205h-578v-387h359v-202h-359v-424h594v-199h-796z" />
<glyph unicode="F" horiz-adv-x="876" d="M72 0v1417h780v-205h-578v-409h369v-203h-369v-600h-202z" />
<glyph unicode="G" horiz-adv-x="1259" d="M49 706.5q0 352.5 171 546t444 193.5q317 0 479 -266l-152 -113q-137 174 -332 174q-188 0 -297.5 -137t-109.5 -397.5t109.5 -397.5t297.5 -137q135 0 236.5 91t101.5 218v43h-297v191h506v-189q0 -238 -145.5 -396.5t-401.5 -158.5q-272 0 -441 191.5t-169 544z" />
<glyph unicode="H" horiz-adv-x="1157" d="M72 0v1417h202v-592h605v592h204v-1417h-204v623h-605v-623h-202z" />
<glyph unicode="I" horiz-adv-x="348" d="M72 0v1417h202v-1417h-202z" />
<glyph unicode="J" horiz-adv-x="1007" d="M8 238l152 124q43 -82 114.5 -129t157.5 -47q121 0 209 96.5t88 229.5v905h205v-905q0 -223 -147.5 -374.5t-358.5 -151.5q-135 0 -251 67.5t-169 184.5z" />
<glyph unicode="K" horiz-adv-x="1138" d="M72 0v1417h202v-741l545 741h260l-444 -577l463 -840h-242l-346 678l-236 -305v-373h-202z" />
<glyph unicode="L" horiz-adv-x="960" d="M72 0v1417h202v-1218h666v-199h-868z" />
<glyph unicode="M" horiz-adv-x="1474" d="M72 0v1417h227l436 -1024l436 1024h230v-1417h-205v965l-412 -965h-98l-412 965v-965h-202z" />
<glyph unicode="N" horiz-adv-x="1187" d="M72 0v1417h213l626 -1044v1044h203v-1417h-213l-627 1042v-1042h-202z" />
<glyph unicode="O" horiz-adv-x="1300" d="M49 707q0 354 164 546.5t434 192.5q272 0 436 -192.5t164 -547t-163.5 -545t-436.5 -190.5q-270 0 -434 192t-164 544zM252 706.5q0 -264.5 104.5 -399.5t291 -135t291.5 137t105 398q0 264 -104 399t-293 135q-186 0 -290.5 -135t-104.5 -399.5z" />
<glyph unicode="P" horiz-adv-x="1097" d="M72 0v1417h544q213 0 337 -110.5t124 -317.5q0 -209 -124 -319.5t-337 -110.5h-342v-559h-202zM274 752h347q121 0 191.5 58t70.5 177q0 117 -71 173.5t-191 56.5h-347v-465z" />
<glyph unicode="Q" horiz-adv-x="1298" d="M49 707q0 354 164 546.5t434 192.5q272 0 436 -192.5t164 -546.5q0 -371 -186 -568l92 -116l-141 -115l-99 125q-117 -61 -266 -62q-270 0 -434 192t-164 544zM252 706.5q0 -264.5 104.5 -399.5t290.5 -135q88 0 135 31l-151 196l145 111l154 -201q115 141 114 398 q0 264 -104 399t-293 135q-186 0 -290.5 -135t-104.5 -399.5z" />
<glyph unicode="R" horiz-adv-x="1153" d="M72 0v1417h544q213 0 337 -108.5t124 -311.5q0 -170 -83 -273t-220 -136l328 -588h-242l-291 559h-295v-559h-202zM274 752h349q121 0 190.5 58t69.5 177q0 117 -70 173.5t-190 56.5h-349v-465z" />
<glyph unicode="S" horiz-adv-x="1187" d="M37 195l147 137q150 -156 416 -156q154 0 246 57.5t92 155.5q0 180 -305 258q-78 18 -136.5 38t-131 55.5t-118.5 77.5t-79 108.5t-33 146.5q0 160 127 259.5t338 99.5q301 0 465 -193l-150 -137q-123 133 -317 133q-111 0 -188.5 -45t-77.5 -117q0 -37 17.5 -66.5 t37 -48t68.5 -40t74 -29.5l94 -29q18 -6 26 -8q92 -29 148.5 -49.5t128 -59t112.5 -82t70 -112t29 -152.5q0 -113 -48.5 -196.5t-128 -128.5t-169 -66.5t-185.5 -21.5q-397 0 -569 211z" />
<glyph unicode="T" horiz-adv-x="1032" d="M8 1212v205h1012v-205h-402v-1212h-202v1212h-408z" />
<glyph unicode="U" horiz-adv-x="1161" d="M70 512v905h202v-905q0 -133 89.5 -229.5t216.5 -96.5q125 0 216 96.5t91 229.5v905h202v-905q0 -223 -149.5 -374.5t-359.5 -151.5q-209 0 -358.5 151.5t-149.5 374.5z" />
<glyph unicode="V" d="M8 1417h230l366 -1095l369 1095h225l-508 -1417h-176z" />
<glyph unicode="W" horiz-adv-x="1726" d="M8 1417h223l254 -1038l279 1038h199l278 -1038l254 1038h219l-373 -1417h-196l-285 1020l-285 -1020h-194z" />
<glyph unicode="X" horiz-adv-x="1228" d="M53 0l445 717l-445 700h242l326 -532l313 532h237l-448 -715l448 -702h-243l-324 530l-311 -530h-240z" />
<glyph unicode="Y" horiz-adv-x="1173" d="M8 1417h232l346 -741l346 741h229l-475 -981v-436h-203v438z" />
<glyph unicode="Z" horiz-adv-x="1024" d="M66 0v158l657 1065h-627v194h883v-162l-657 -1067h657v-188h-913z" />
<glyph unicode="[" horiz-adv-x="442" d="M66 -348v1763h327v-127h-198v-1511h215v-125h-344z" />
<glyph unicode="\" horiz-adv-x="735" d="M8 1415h137l578 -1567h-137z" />
<glyph unicode="]" horiz-adv-x="446" d="M29 -223h217v1511h-199v127h328v-1763h-346v125z" />
<glyph unicode="^" horiz-adv-x="735" d="M57 727l248 688h123l246 -688h-139l-170 502l-175 -502h-133z" />
<glyph unicode="_" horiz-adv-x="1116" d="M-4 2h1124v-164h-1124v164z" />
<glyph unicode="`" horiz-adv-x="448" d="M14 1454l92 119l322 -299l-63 -86z" />
<glyph unicode="a" horiz-adv-x="976" d="M45 344q0 172 118 262t306 90q150 0 246 -84q0 162 -49.5 237t-184.5 75q-147 0 -256 -82l-88 166q121 109 363 108q211 0 308 -116.5t97 -370.5v-629h-182v104q-104 -133 -295 -133q-154 0 -268.5 97.5t-114.5 275.5zM236 344q0 -90 60 -140t167 -50q82 0 153.5 44 t98.5 97v147q-78 92 -248 93q-231 -1 -231 -191z" />
<glyph unicode="b" horiz-adv-x="1021" d="M72 0v1423l202 70v-508q86 131 279 131q184 0 300 -149.5t116 -423.5q0 -268 -120 -420t-310 -152q-94 0 -174 38t-111 104v-113h-182zM262 373q84 -207 244 -207q121 0 192.5 97t71.5 282q0 186 -72.5 281.5t-199.5 95.5q-150 0 -236 -195v-354z" />
<glyph unicode="c" horiz-adv-x="944" d="M49 543q0 276 133 424.5t353 148.5q125 0 221 -56t145 -157l-156 -141q-72 154 -221 153q-127 0 -200.5 -95t-73.5 -277.5t73.5 -277.5t200.5 -95q125 0 217 129l148 -131q-141 -197 -377 -197q-203 0 -333 150t-130 422z" />
<glyph unicode="d" horiz-adv-x="993" d="M49 543q0 276 111.5 424.5t296.5 148.5q182 0 260 -131v438l203 70v-1493h-183v113q-27 -61 -105.5 -101.5t-172.5 -40.5q-184 0 -297 151t-113 421zM242 545q0 -184 65.5 -281.5t184.5 -97.5q170 0 237 207v354q-66 195 -229 195q-258 0 -258 -377z" />
<glyph unicode="e" horiz-adv-x="1019" d="M49 543q0 276 124 424.5t335 148.5q205 0 331 -150.5t126 -412.5q0 -31 -11 -72h-706q10 -152 85 -235.5t197 -83.5q137 0 228 102l129 -114q-55 -80 -155.5 -129.5t-213.5 -49.5q-209 0 -339 150t-130 422zM254 641h506q-14 139 -80 213t-172 74q-225 0 -254 -287z" />
<glyph unicode="f" horiz-adv-x="479" d="M2 915v172h102v134q0 264 234 264q68 0 131 -23v-176q-35 18 -84 19q-39 0 -57.5 -21.5t-18.5 -75.5v-121h160v-172h-160v-915h-205v915h-102z" />
<glyph unicode="g" horiz-adv-x="1009" d="M49 563q0 264 118 408.5t298 144.5q188 0 278 -131v102h193v-864q0 -524 -494 -616l-36 176q154 43 248 141.5t94 231.5q-100 -137 -267 -138q-201 0 -316.5 138.5t-115.5 406.5zM242 569q0 -180 69.5 -269t196.5 -89q150 0 235 182v338q-82 201 -241 201 q-121 0 -190.5 -92.5t-69.5 -270.5z" />
<glyph unicode="h" horiz-adv-x="946" d="M66 0v1423l202 70v-510q104 133 287 133q154 0 252 -108.5t98 -309.5v-698h-203v659q0 248 -186 248q-170 0 -248 -182v-725h-202z" />
<glyph unicode="i" horiz-adv-x="354" d="M68 1356q0 45 30.5 77.5t73.5 32.5q45 0 77 -32.5t32 -77.5q0 -43 -32 -74t-77 -31t-74.5 31t-29.5 74zM72 0v1087h204v-1087h-204z" />
<glyph unicode="j" horiz-adv-x="401" d="M-6 -152q59 0 92 38t33 108v1093h205v-1093q0 -154 -87 -255t-243 -101v210zM115 1356q0 45 30.5 77.5t73.5 32.5q45 0 77 -32.5t32 -77.5t-32 -75t-77 -30t-74.5 30t-29.5 75z" />
<glyph unicode="k" horiz-adv-x="925" d="M72 0v1423l202 70v-819l297 413h263l-287 -366l368 -721h-241l-254 559l-146 -186v-373h-202z" />
<glyph unicode="l" horiz-adv-x="348" d="M72 0v1423l202 70v-1493h-202z" />
<glyph unicode="m" horiz-adv-x="1546" d="M72 0v1087h192v-104q109 133 277 133q180 0 258 -170q102 170 295 170q180 0 280.5 -104.5t100.5 -304.5v-707h-203v659q0 137 -44 196.5t-145 59.5q-156 0 -209 -223v-692h-204v659q0 139 -44 197.5t-143 58.5q-70 0 -118 -45t-91 -145v-725h-202z" />
<glyph unicode="n" horiz-adv-x="983" d="M72 0v1087h192v-104q115 133 297 133q154 0 252 -108.5t98 -309.5v-698h-202v659q0 256 -207 256q-145 0 -228 -190v-725h-202z" />
<glyph unicode="o" horiz-adv-x="1032" d="M49 542.5q0 274.5 128 424t337 149.5t337 -149.5t128 -424t-128 -423t-337 -148.5t-337 148.5t-128 423zM250 542.5q0 -182.5 69.5 -277.5t194.5 -95t195.5 95t70.5 277.5t-70.5 277.5t-195.5 95t-194.5 -95t-69.5 -277.5z" />
<glyph unicode="p" horiz-adv-x="995" d="M70 -393v1480h182v-112q29 61 106.5 101t171.5 40q184 0 298 -150.5t114 -420.5q0 -276 -111.5 -425t-296 -149t-262.5 131v-428zM260 360q29 -94 91.5 -144t137.5 -50q258 0 259 377q0 184 -66 281.5t-184 97.5q-88 0 -150.5 -58.5t-87.5 -148.5v-355z" />
<glyph unicode="q" horiz-adv-x="1019" d="M49 545q0 268 120 419.5t310 151.5q94 0 174 -38t111 -103v112h182v-1413l-203 -67v495q-86 -131 -278 -131q-184 0 -300 150t-116 424zM250 543q0 -186 71.5 -281.5t198.5 -95.5q76 0 138.5 49t97.5 145v355q-25 94 -88.5 150.5t-155.5 56.5q-121 0 -191.5 -97.5 t-70.5 -281.5z" />
<glyph unicode="r" horiz-adv-x="649" d="M72 0v1087h192v-104q31 61 97.5 97t144.5 36q100 0 153 -53l-73 -182q-59 41 -117 41q-129 0 -195 -197v-725h-202z" />
<glyph unicode="s" horiz-adv-x="925" d="M20 109l84 165q133 -111 349 -110q88 0 155.5 29.5t67.5 97.5q0 31 -18.5 56.5t-39 40.5t-61.5 40q-39 20 -112.5 46t-131 49.5t-117 60.5t-92 96t-32.5 141q0 109 62.5 180.5t143 96t177.5 24.5q229 0 358 -121l-86 -163q-41 49 -126 73.5t-155 24.5q-78 0 -125 -27.5 t-47 -81.5q0 -45 105 -100q39 -20 101 -44l112 -41q49 -17 105.5 -47t94 -64.5t62.5 -92t25 -129.5q0 -178 -122 -256t-298 -78q-261 1 -439 134z" />
<glyph unicode="t" horiz-adv-x="608" d="M6 915v172h133v306l205 69v-375h219v-172h-219v-626q0 -41 29.5 -66.5t70.5 -25.5q92 0 158 73l-43 -219q-53 -53 -182 -53q-94 0 -166 67.5t-72 186.5v663h-133z" />
<glyph unicode="u" horiz-adv-x="962" d="M70 389v698h202v-591q0 -170 45 -247t154 -77q72 0 122 46t93 144v725h203v-1087h-193v104q-104 -133 -274 -133q-156 0 -254 107.5t-98 310.5z" />
<glyph unicode="v" horiz-adv-x="974" d="M8 1087h225l256 -765l254 765h220l-390 -1087h-172z" />
<glyph unicode="w" horiz-adv-x="1409" d="M8 1087h221l181 -720l202 720h187l200 -720l181 720h217l-307 -1087h-181l-209 698l-206 -698h-179z" />
<glyph unicode="x" horiz-adv-x="1050" d="M51 0l361 573l-334 514h248l211 -339l190 339h248l-338 -528l362 -559h-251l-232 381l-217 -381h-248z" />
<glyph unicode="y" horiz-adv-x="976" d="M8 1087h225l256 -765l254 765h222l-533 -1480h-213l160 450z" />
<glyph unicode="z" horiz-adv-x="978" d="M63 0v162l586 727h-540v198h819v-163l-586 -729h586v-195h-865z" />
<glyph unicode="{" horiz-adv-x="622" d="M14 483v109q119 43 174.5 134t55.5 255q0 63 1 99t7 96.5t22.5 95.5t43 72.5t71.5 55t105 17.5q49 0 73 -2v-121q-55 0 -92 -15t-57.5 -36.5t-30.5 -68t-12 -85t-2 -110.5q0 -309 -215 -444q117 -70 166 -177.5t49 -267.5q0 -72 2 -110.5t12 -85t30.5 -68t57.5 -36.5 t92 -15v-121q-49 -4 -73 -4q-59 0 -104.5 17.5t-72 56t-43 73.5t-22.5 95.5t-7 95.5t-1 100q0 164 -55.5 259t-174.5 136z" />
<glyph unicode="|" horiz-adv-x="270" d="M66 -348v1763h129v-1763h-129z" />
<glyph unicode="}" horiz-adv-x="620" d="M49 -225q55 0 92 15t57.5 36.5t31 68t12.5 85t2 110.5q0 160 49 267.5t166 177.5q-215 135 -215 444q0 72 -2 110.5t-12.5 85t-31 68t-57.5 36.5t-92 15v121q25 2 74 2q59 0 104 -17.5t72 -55t43 -72.5t22.5 -95.5t7.5 -96.5t1 -99q0 -164 55 -255t174 -134v-109 q-119 -41 -174 -136t-55 -259q0 -66 -1 -100.5t-7.5 -95t-22.5 -95.5t-43 -73.5t-72 -56t-104 -17.5q-25 0 -74 4v121z" />
<glyph unicode="~" horiz-adv-x="1048" d="M57 686q94 160 265 160q82 0 154.5 -41t131 -82t109.5 -41q98 0 168 117l102 -76q-47 -80 -118.5 -124t-151.5 -44q-74 0 -144.5 41t-134 82t-119.5 41q-94 0 -159 -109z" />
<glyph unicode="&#xa1;" horiz-adv-x="352" d="M59 1307q0 45 35 76.5t82 31.5q49 0 81 -31.5t32 -76.5q0 -49 -32 -82t-81 -33q-47 0 -82 34t-35 81zM92 -31v1049h164l20 -1049h-184z" />
<glyph unicode="&#xa2;" horiz-adv-x="913" d="M35 709q0 242 105.5 387t281.5 176v145h168v-147q90 -20 169 -80t126 -150l-129 -106q-98 178 -252 178q-139 0 -221 -102.5t-82 -300.5q0 -195 82 -299.5t221 -104.5q133 0 246 156l124 -113q-121 -162 -284 -196v-152h-168v147q-178 27 -282.5 172.5t-104.5 389.5z" />
<glyph unicode="&#xa3;" horiz-adv-x="1085" d="M90 0v160q90 35 142.5 129t52.5 176v215h-97v166h97v135q0 440 407 440q172 0 303 -94l-92 -147q-41 33 -105.5 54t-115.5 21q-229 0 -229 -274v-135h378v-166h-378v-227q0 -174 -103 -289h725v-164h-985z" />
<glyph unicode="&#xa5;" d="M37 1417h211l358 -581l361 581h207l-443 -686h328v-145h-371v-191h371v-145h-371v-250h-168v250h-366v145h366v191h-366v145h323z" />
<glyph unicode="&#xa6;" horiz-adv-x="239" d="M68 272h129v-620h-129v620zM68 809v606h129v-606h-129z" />
<glyph unicode="&#xa7;" horiz-adv-x="968" d="M39 4l113 133q119 -127 327 -127q102 0 181 36t79 116q0 53 -29.5 86t-95.5 63q-37 20 -109.5 47t-131 52.5t-118.5 62.5t-94 94.5t-34 130.5q0 80 47 140.5t125 87.5q-86 47 -129 104t-43 146q0 125 112.5 198.5t268.5 73.5q129 0 237.5 -43t159.5 -123l-129 -106 q-35 45 -116.5 73.5t-153.5 28.5q-80 0 -145.5 -30.5t-65.5 -84.5q0 -27 20.5 -49t41 -33.5t63.5 -31.5q39 -20 120 -51t136 -57t114.5 -65.5t91 -99t31.5 -135.5q0 -160 -135 -240q135 -72 135 -237q0 -164 -124.5 -243t-299.5 -79q-253 0 -450 162zM295 698 q0 -45 41 -79.5t86 -52t118.5 -41t102.5 -36.5q96 41 96 138q0 45 -17 78.5t-57 58t-69 36t-86 29.5q-80 -6 -147.5 -41t-67.5 -90z" />
<glyph unicode="&#xa8;" horiz-adv-x="692" d="M63 1380q0 43 28 70t71 27t70.5 -27t27.5 -70q0 -41 -27.5 -66.5t-70.5 -25.5t-71 25.5t-28 66.5zM436 1380q0 43 25.5 70t66.5 27q45 0 71 -27t26 -70q0 -41 -26 -66.5t-71 -25.5q-41 0 -66.5 25.5t-25.5 66.5z" />
<glyph unicode="&#xa9;" horiz-adv-x="1568" d="M47 707q0 305 216 522t521.5 217t521.5 -217t216 -522q0 -303 -216 -520.5t-521.5 -217.5t-521.5 217.5t-216 520.5zM178 706.5q0 -249.5 178.5 -427t428 -177.5t428 177.5t178.5 427t-178.5 428t-428 178.5t-428 -178.5t-178.5 -428zM397 702q0 205 105.5 314.5 t277.5 109.5q100 0 183.5 -44t130.5 -130l-101 -67q-84 129 -213 129q-121 0 -192.5 -79t-71.5 -233q0 -150 71.5 -229.5t192.5 -79.5q119 0 209 113l92 -76q-121 -147 -301 -147q-172 0 -277.5 109t-105.5 310z" />
<glyph unicode="&#xaa;" horiz-adv-x="610" d="M47 991q0 106 64.5 160.5t173.5 54.5q82 0 141 -47q0 162 -115 162q-82 0 -155 -59l-60 114q72 72 215 72q236 0 236 -260v-408h-121v45q-61 -61 -156 -61q-90 0 -156.5 59t-66.5 168zM176 991q0 -47 31 -72.5t86 -25.5q90 0 131 63v86q-47 47 -129 48q-119 -1 -119 -99z " />
<glyph unicode="&#xab;" horiz-adv-x="720" d="M25 481v111l303 256v-154l-201 -157l201 -160v-152zM354 481v111l303 256v-154l-198 -157l198 -160v-152z" />
<glyph unicode="&#xad;" horiz-adv-x="768" d="M66 457v166h630v-166h-630z" />
<glyph unicode="&#xae;" horiz-adv-x="1282" d="M47 850q0 246 174 421t420 175t420 -175t174 -421t-173 -420t-421 -174q-246 0 -420 174t-174 420zM176 850q0 -193 136.5 -328t329 -135t329.5 135t137 328q0 195 -137 331t-330 136q-195 0 -330 -136t-135 -331zM455 557v610h207q82 0 134 -51t52 -141 q0 -59 -30 -104.5t-81 -59.5l113 -254h-127l-88 227h-70v-227h-110zM565 901h101q31 0 50 19.5t19 54.5q0 78 -69 78h-101v-152z" />
<glyph unicode="&#xaf;" horiz-adv-x="657" d="M68 1335v121h520v-121h-520z" />
<glyph unicode="&#xb0;" horiz-adv-x="702" d="M47 1124q0 127 88 216.5t215 89.5q125 0 215 -90.5t90 -215.5q0 -127 -89 -216t-216 -89t-215 89t-88 216zM176 1122.5q0 -73.5 51.5 -124t122.5 -50.5q74 0 125 50.5t51 123.5q0 72 -52 124t-124 52q-74 0 -124 -51t-50 -124.5z" />
<glyph unicode="&#xb1;" horiz-adv-x="804" d="M37 164v125h729v-125h-729zM37 633v125h315v299h125v-299h289v-125h-289v-283h-125v283h-315z" />
<glyph unicode="&#xb2;" horiz-adv-x="700" d="M49 571q12 231 135 361q29 31 115 78t146.5 95t60.5 101q0 47 -45 74t-109 27q-115 0 -186 -86l-92 84q45 63 121.5 96t156.5 33q121 0 203 -59.5t82 -172.5q0 -94 -59.5 -153.5t-159.5 -112.5q-94 -51 -145.5 -103.5t-73.5 -134.5h442v-127h-592z" />
<glyph unicode="&#xb3;" horiz-adv-x="686" d="M37 674l80 98q80 -80 205 -80q80 0 135 41t55 96q0 57 -39 100.5t-108 43.5h-86v117h86q37 0 64.5 35.5t27.5 80.5t-38 68.5t-93 23.5q-39 0 -80 -23.5t-64 -62.5l-92 91q35 57 99.5 88.5t136.5 31.5q106 0 182 -55t76 -156q0 -111 -86 -168q141 -47 141 -219 q0 -113 -95 -186.5t-225 -73.5q-74 0 -151.5 28t-130.5 81z" />
<glyph unicode="&#xb4;" horiz-adv-x="448" d="M18 1274l322 299l92 -119l-350 -266z" />
<glyph unicode="&#xb5;" horiz-adv-x="1081" d="M68 -328v1415h202v-735q76 -190 217 -190q100 0 149.5 61.5t49.5 194.5v669h203v-800q0 -76 65 -76q59 0 97 51v-203q-45 -66 -150 -65q-109 0 -149 90q-78 -115 -240 -115q-156 0 -242 117v-414h-202z" />
<glyph unicode="&#xb6;" horiz-adv-x="1064" d="M23 1006q0 201 118.5 305t325.5 104h528v-1415h-127v592h-155v-592h-129v592h-117q-205 0 -324.5 107.5t-119.5 306.5zM713 719h155v569h-155v-569z" />
<glyph unicode="&#xb7;" horiz-adv-x="311" d="M49 680q0 45 28.5 76.5t76.5 31.5q43 0 75.5 -31.5t32.5 -76.5q0 -43 -32.5 -74t-75.5 -31q-47 0 -76 30t-29 75z" />
<glyph unicode="&#xb8;" horiz-adv-x="331" d="M35 -350l115 309h161l-184 -352z" />
<glyph unicode="&#xb9;" horiz-adv-x="311" d="M25 1225v112q90 10 102 78h113v-844h-127v654h-88z" />
<glyph unicode="&#xba;" horiz-adv-x="655" d="M49 1104q0 168 76 255t203 87t201.5 -87t74.5 -255t-74.5 -254t-201.5 -86t-203 87t-76 253zM176 1104q0 -215 151.5 -215t151.5 215t-151.5 215t-151.5 -215z" />
<glyph unicode="&#xbb;" horiz-adv-x="727" d="M68 225v152l198 160l-198 157v154l303 -256v-111zM397 225v152l201 160l-201 157v154l303 -256v-111z" />
<glyph unicode="&#xbc;" horiz-adv-x="1435" d="M59 1225v112q90 10 103 78h112v-844h-129v654h-86zM94 0l961 1415h157l-962 -1415h-156zM737 150v98l469 594h97v-570h83v-122h-83v-150h-125v150h-441zM918 272h260v326z" />
<glyph unicode="&#xbd;" horiz-adv-x="1517" d="M57 1225v112q90 10 103 78h112v-844h-129v654h-86zM92 0l961 1415h157l-962 -1415h-156zM879 -2q12 154 65 258t166 174q16 10 68.5 39t79 46t52 49t25.5 67q0 49 -44 74.5t-107 25.5q-119 0 -189 -86l-90 84q45 63 122 97t157 34q119 0 200.5 -60.5t81.5 -172.5 q0 -53 -17 -94t-55 -74t-66 -50.5t-81 -46.5q-90 -49 -142 -104t-75 -133h443v-127h-594z" />
<glyph unicode="&#xbe;" horiz-adv-x="1544" d="M41 674l80 98q80 -80 205 -80q82 0 137 40t55 97.5t-39 100.5t-108 43h-88v117h88q37 0 64.5 35.5t27.5 80.5t-38 68.5t-95 23.5q-37 0 -79 -23.5t-65 -62.5l-92 91q35 57 99.5 88.5t136.5 31.5q109 0 183.5 -55t74.5 -156q0 -109 -84 -168q139 -47 139 -219 q0 -113 -94 -186.5t-225 -73.5q-72 0 -152 29t-131 80zM274 0l961 1415h158l-963 -1415h-156zM840 150v98l469 594h96v-570h86v-122h-86v-150h-125v150h-440zM1020 272h260v326z" />
<glyph unicode="&#xbf;" horiz-adv-x="905" d="M33 330q0 117 48 200.5t132 167.5q80 80 117 145.5t41 155.5h190q-10 -172 -86 -286q-31 -45 -98.5 -117t-104 -130t-36.5 -126q0 -86 63 -127t164 -41q164 0 293 113l123 -164q-176 -150 -412 -150q-190 0 -312 90.5t-122 268.5zM358 1321q0 47 34 78t83 31t81 -31 t32 -78q0 -49 -32 -82t-81 -33q-47 0 -82 34t-35 81z" />
<glyph unicode="&#xc0;" d="M10 0l506 1417h176l508 -1417h-227l-94 274h-551l-92 -274h-226zM385 469h436l-219 647zM395 1812l92 119l322 -299l-64 -86z" />
<glyph unicode="&#xc1;" d="M10 0l506 1417h176l508 -1417h-227l-94 274h-551l-92 -274h-226zM385 469h436l-219 647zM397 1632l322 299l92 -119l-350 -266z" />
<glyph unicode="&#xc2;" d="M10 0l506 1417h176l508 -1417h-227l-94 274h-551l-92 -274h-226zM317 1618l287 293l287 -293l-64 -74l-223 187l-223 -187zM385 469h436l-219 647z" />
<glyph unicode="&#xc3;" d="M10 0l506 1417h176l508 -1417h-227l-94 274h-551l-92 -274h-226zM197 1700q29 88 95 145.5t136 57.5q76 0 139.5 -44t111.5 -87t89 -43q86 0 154 163l92 -82q-29 -94 -102.5 -151t-149.5 -57q-63 0 -121.5 43t-109 85t-93.5 42q-82 0 -149 -154zM385 469h436l-219 647z " />
<glyph unicode="&#xc4;" d="M10 0l506 1417h176l508 -1417h-227l-94 274h-551l-92 -274h-226zM324 1739q0 43 27.5 69.5t70.5 26.5t70.5 -26.5t27.5 -69.5q0 -41 -27.5 -66.5t-70.5 -25.5t-70.5 25.5t-27.5 66.5zM385 469h436l-219 647zM696 1739q0 43 26 69.5t66 26.5q45 0 71 -26.5t26 -69.5 q0 -41 -25.5 -66.5t-71.5 -25.5q-41 0 -66.5 25.5t-25.5 66.5z" />
<glyph unicode="&#xc5;" d="M10 0l506 1417h176l508 -1417h-227l-94 274h-551l-92 -274h-226zM385 469h436l-219 647zM426 1706q0 74 52 126t124 52q74 0 127 -52t53 -126q0 -72 -53 -125t-127 -53q-72 0 -124 53t-52 125zM520 1706q0 -37 23.5 -60.5t58.5 -23.5t59.5 23.5t24.5 60.5 q0 33 -24.5 57.5t-59.5 24.5t-58.5 -24.5t-23.5 -57.5z" />
<glyph unicode="&#xc6;" horiz-adv-x="1710" d="M41 0l754 1417h831v-205h-520v-387h303v-202h-303v-424h539v-199h-744v367h-434l-191 -367h-235zM559 569h342v635z" />
<glyph unicode="&#xc7;" horiz-adv-x="1183" d="M49 706.5q0 352.5 170 546t443 193.5q311 0 477 -258l-150 -119q-137 172 -334 172q-188 0 -294.5 -135t-106.5 -399q0 -260 107.5 -397.5t293.5 -137.5q201 0 324 158l149 -117q-178 -242 -466 -242q-274 0 -443.5 191.5t-169.5 544zM453 -350l114 309h162l-184 -352z " />
<glyph unicode="&#xc8;" horiz-adv-x="931" d="M72 0v1417h780v-205h-578v-387h359v-202h-359v-424h594v-199h-796zM256 1812l92 119l322 -299l-64 -86z" />
<glyph unicode="&#xc9;" horiz-adv-x="931" d="M72 0v1417h780v-205h-578v-387h359v-202h-359v-424h594v-199h-796zM258 1632l322 299l92 -119l-350 -266z" />
<glyph unicode="&#xca;" horiz-adv-x="931" d="M72 0v1417h780v-205h-578v-387h359v-202h-359v-424h594v-199h-796zM178 1618l287 293l287 -293l-64 -74l-223 187l-223 -187z" />
<glyph unicode="&#xcb;" horiz-adv-x="931" d="M72 0v1417h780v-205h-578v-387h359v-202h-359v-424h594v-199h-796zM184 1739q0 43 28 69.5t71 26.5t70.5 -26.5t27.5 -69.5q0 -41 -27.5 -66.5t-70.5 -25.5t-71 25.5t-28 66.5zM557 1739q0 43 25.5 69.5t66.5 26.5q45 0 70.5 -26.5t25.5 -69.5q0 -41 -25.5 -66.5 t-70.5 -25.5q-41 0 -66.5 25.5t-25.5 66.5z" />
<glyph unicode="&#xcc;" horiz-adv-x="346" d="M-35 1812l92 119l322 -299l-64 -86zM72 0v1417h202v-1417h-202z" />
<glyph unicode="&#xcd;" horiz-adv-x="346" d="M-33 1632l322 299l92 -119l-350 -266zM72 0v1417h202v-1417h-202z" />
<glyph unicode="&#xce;" horiz-adv-x="346" d="M-113 1618l287 293l287 -293l-64 -74l-223 187l-223 -187zM72 0v1417h202v-1417h-202z" />
<glyph unicode="&#xcf;" horiz-adv-x="346" d="M-106 1739q0 43 27.5 69.5t70.5 26.5t70.5 -26.5t27.5 -69.5q0 -41 -27.5 -66.5t-70.5 -25.5t-70.5 25.5t-27.5 66.5zM72 0v1417h202v-1417h-202zM266 1739q0 43 25.5 69.5t66.5 26.5q45 0 71 -26.5t26 -69.5q0 -41 -26 -66.5t-71 -25.5q-41 0 -66.5 25.5t-25.5 66.5z " />
<glyph unicode="&#xd0;" horiz-adv-x="1257" d="M27 608v162h75v647h381q303 0 513 -203.5t210 -502.5q0 -297 -210 -504t-513 -207h-381v608h-75zM309 201h176q215 0 363.5 144t148.5 364q0 223 -147.5 363t-364.5 140h-176v-442h291v-162h-291v-407z" />
<glyph unicode="&#xd1;" horiz-adv-x="1185" d="M72 0v1417h213l626 -1044v1044h203v-1417h-213l-627 1042v-1042h-202zM184 1700q29 88 95.5 145.5t136.5 57.5q76 0 139 -44t111.5 -87t89.5 -43q86 0 153 163l92 -82q-29 -94 -102.5 -151t-148.5 -57q-63 0 -122 43t-109 85t-93 42q-82 0 -150 -154z" />
<glyph unicode="&#xd2;" horiz-adv-x="1300" d="M49 707q0 354 164 546.5t434 192.5q272 0 436 -192.5t164 -547t-163.5 -545t-436.5 -190.5q-270 0 -434 192t-164 544zM252 706.5q0 -264.5 104.5 -399.5t291 -135t291.5 137t105 398q0 264 -104 399t-293 135q-186 0 -290.5 -135t-104.5 -399.5zM440 1812l92 119 l322 -299l-63 -86z" />
<glyph unicode="&#xd3;" horiz-adv-x="1300" d="M49 707q0 354 164 546.5t434 192.5q272 0 436 -192.5t164 -547t-163.5 -545t-436.5 -190.5q-270 0 -434 192t-164 544zM252 706.5q0 -264.5 104.5 -399.5t291 -135t291.5 137t105 398q0 264 -104 399t-293 135q-186 0 -290.5 -135t-104.5 -399.5zM442 1632l322 299 l92 -119l-350 -266z" />
<glyph unicode="&#xd4;" horiz-adv-x="1300" d="M49 707q0 354 164 546.5t434 192.5q272 0 436 -192.5t164 -547t-163.5 -545t-436.5 -190.5q-270 0 -434 192t-164 544zM252 706.5q0 -264.5 104.5 -399.5t291 -135t291.5 137t105 398q0 264 -104 399t-293 135q-186 0 -290.5 -135t-104.5 -399.5zM362 1618l287 293 l287 -293l-64 -74l-223 187l-223 -187z" />
<glyph unicode="&#xd5;" horiz-adv-x="1300" d="M49 707q0 354 164 546.5t434 192.5q272 0 436 -192.5t164 -547t-163.5 -545t-436.5 -190.5q-270 0 -434 192t-164 544zM242 1700q29 88 95 145.5t136 57.5q76 0 139.5 -44t111.5 -87t89 -43q86 0 154 163l92 -82q-29 -94 -102.5 -151t-149.5 -57q-63 0 -121.5 43t-109 85 t-93.5 42q-82 0 -149 -154zM252 706.5q0 -264.5 104.5 -399.5t291 -135t291.5 137t105 398q0 264 -104 399t-293 135q-186 0 -290.5 -135t-104.5 -399.5z" />
<glyph unicode="&#xd6;" horiz-adv-x="1300" d="M49 707q0 354 164 546.5t434 192.5q272 0 436 -192.5t164 -547t-163.5 -545t-436.5 -190.5q-270 0 -434 192t-164 544zM252 706.5q0 -264.5 104.5 -399.5t291 -135t291.5 137t105 398q0 264 -104 399t-293 135q-186 0 -290.5 -135t-104.5 -399.5zM369 1739 q0 43 27.5 69.5t70.5 26.5t70.5 -26.5t27.5 -69.5q0 -41 -27.5 -66.5t-70.5 -25.5t-70.5 25.5t-27.5 66.5zM741 1739q0 43 26 69.5t67 26.5q45 0 70.5 -26.5t25.5 -69.5q0 -41 -25.5 -66.5t-70.5 -25.5q-41 0 -67 25.5t-26 66.5z" />
<glyph unicode="&#xd7;" horiz-adv-x="722" d="M49 918l90 92l221 -224l222 224l90 -92l-223 -222l219 -217l-88 -90l-220 219l-219 -219l-88 90l219 217z" />
<glyph unicode="&#xd8;" horiz-adv-x="1300" d="M51 707q0 354 164 546.5t434 192.5q104 0 197 -33l37 96h137l-57 -149q287 -184 286 -653q0 -354 -163.5 -545t-436.5 -191q-96 0 -194 29l-37 -106h-137l59 159q-289 181 -289 654zM246 707q0 -330 166 -461l366 985q-59 20 -129 20q-190 0 -296.5 -138t-106.5 -406z M522 182q53 -20 127 -20q190 0 298 139t108 406q0 328 -164 458z" />
<glyph unicode="&#xd9;" horiz-adv-x="1161" d="M70 512v905h202v-905q0 -133 89.5 -229.5t216.5 -96.5q125 0 216 96.5t91 229.5v905h202v-905q0 -223 -149.5 -374.5t-359.5 -151.5q-209 0 -358.5 151.5t-149.5 374.5zM371 1812l92 119l321 -299l-63 -86z" />
<glyph unicode="&#xda;" horiz-adv-x="1161" d="M70 512v905h202v-905q0 -133 89.5 -229.5t216.5 -96.5q125 0 216 96.5t91 229.5v905h202v-905q0 -223 -149.5 -374.5t-359.5 -151.5q-209 0 -358.5 151.5t-149.5 374.5zM373 1632l321 299l92 -119l-350 -266z" />
<glyph unicode="&#xdb;" horiz-adv-x="1161" d="M70 512v905h202v-905q0 -133 89.5 -229.5t216.5 -96.5q125 0 216 96.5t91 229.5v905h202v-905q0 -223 -149.5 -374.5t-359.5 -151.5q-209 0 -358.5 151.5t-149.5 374.5zM293 1618l287 293l286 -293l-63 -74l-223 187l-224 -187z" />
<glyph unicode="&#xdc;" horiz-adv-x="1161" d="M70 512v905h202v-905q0 -133 89.5 -229.5t216.5 -96.5q125 0 216 96.5t91 229.5v905h202v-905q0 -223 -149.5 -374.5t-359.5 -151.5q-209 0 -358.5 151.5t-149.5 374.5zM299 1739q0 43 27.5 69.5t70.5 26.5t71 -26.5t28 -69.5q0 -41 -28 -66.5t-71 -25.5t-70.5 25.5 t-27.5 66.5zM672 1739q0 43 25.5 69.5t66.5 26.5q45 0 70.5 -26.5t25.5 -69.5q0 -41 -25.5 -66.5t-70.5 -25.5q-41 0 -66.5 25.5t-25.5 66.5z" />
<glyph unicode="&#xdd;" horiz-adv-x="1173" d="M8 1417h232l346 -741l346 741h229l-475 -981v-436h-203v438zM379 1632l321 299l93 -119l-351 -266z" />
<glyph unicode="&#xde;" horiz-adv-x="1060" d="M68 0v1417h202v-284h312q213 0 336.5 -111t123.5 -317q0 -209 -123.5 -320t-336.5 -111h-312v-274h-202zM270 475h312q117 0 186.5 57.5t69.5 172.5q0 113 -70 168t-186 55h-312v-453z" />
<glyph unicode="&#xdf;" horiz-adv-x="989" d="M72 0v1063q0 209 106.5 319.5t280.5 110.5q152 0 264.5 -96.5t112.5 -268.5t-146 -280q117 -41 185.5 -145.5t68.5 -233.5q0 -221 -128 -343t-347 -134v205q129 6 208 74.5t79 193.5q0 121 -74 192.5t-205 85.5v160q174 41 174 221q0 78 -54 124t-134 46 q-88 0 -138.5 -65.5t-50.5 -190.5v-1038h-202z" />
<glyph unicode="&#xe0;" horiz-adv-x="980" d="M45 344q0 172 118 262t306 90q150 0 246 -84q0 162 -49.5 237t-184.5 75q-147 0 -256 -82l-88 166q121 109 363 108q211 0 308 -116.5t97 -370.5v-629h-182v104q-104 -133 -295 -133q-154 0 -268.5 97.5t-114.5 275.5zM236 344q0 -90 60 -140t167 -50q82 0 153.5 44 t98.5 97v147q-78 92 -248 93q-231 -1 -231 -191zM309 1454l92 119l322 -299l-64 -86z" />
<glyph unicode="&#xe1;" horiz-adv-x="980" d="M45 344q0 172 118 262t306 90q150 0 246 -84q0 162 -49.5 237t-184.5 75q-147 0 -256 -82l-88 166q121 109 363 108q211 0 308 -116.5t97 -370.5v-629h-182v104q-104 -133 -295 -133q-154 0 -268.5 97.5t-114.5 275.5zM236 344q0 -90 60 -140t167 -50q82 0 153.5 44 t98.5 97v147q-78 92 -248 93q-231 -1 -231 -191zM260 1274l322 299l92 -119l-350 -266z" />
<glyph unicode="&#xe2;" horiz-adv-x="980" d="M45 344q0 172 118 262t306 90q150 0 246 -84q0 162 -49.5 237t-184.5 75q-147 0 -256 -82l-88 166q121 109 363 108q211 0 308 -116.5t97 -370.5v-629h-182v104q-104 -133 -295 -133q-154 0 -268.5 97.5t-114.5 275.5zM203 1260l286 292l287 -292l-63 -74l-224 186 l-223 -186zM236 344q0 -90 60 -140t167 -50q82 0 153.5 44t98.5 97v147q-78 92 -248 93q-231 -1 -231 -191z" />
<glyph unicode="&#xe3;" horiz-adv-x="980" d="M45 344q0 172 118 262t306 90q150 0 246 -84q0 162 -49.5 237t-184.5 75q-147 0 -256 -82l-88 166q121 109 363 108q211 0 308 -116.5t97 -370.5v-629h-182v104q-104 -133 -295 -133q-154 0 -268.5 97.5t-114.5 275.5zM94 1341q29 88 95.5 145.5t136.5 57.5 q59 0 112.5 -27.5t85 -59.5t70.5 -59.5t72 -27.5q86 0 153 164l92 -82q-29 -94 -102.5 -151.5t-149.5 -57.5q-63 0 -121.5 42t-108.5 85t-93 43q-82 0 -150 -153zM236 344q0 -90 60 -140t167 -50q82 0 153.5 44t98.5 97v147q-78 92 -248 93q-231 -1 -231 -191z" />
<glyph unicode="&#xe4;" horiz-adv-x="980" d="M45 344q0 172 118 262t306 90q150 0 246 -84q0 162 -49.5 237t-184.5 75q-147 0 -256 -82l-88 166q121 109 363 108q211 0 308 -116.5t97 -370.5v-629h-182v104q-104 -133 -295 -133q-154 0 -268.5 97.5t-114.5 275.5zM209 1380q0 43 27.5 70t70.5 27t71 -27t28 -70 q0 -41 -28 -66.5t-71 -25.5t-70.5 25.5t-27.5 66.5zM236 344q0 -90 60 -140t167 -50q82 0 153.5 44t98.5 97v147q-78 92 -248 93q-231 -1 -231 -191zM582 1380q0 43 25.5 70t66.5 27q45 0 70.5 -27t25.5 -70q0 -41 -25.5 -66.5t-70.5 -25.5q-41 0 -66.5 25.5t-25.5 66.5z " />
<glyph unicode="&#xe5;" horiz-adv-x="980" d="M45 344q0 172 118 262t306 90q150 0 246 -84q0 162 -49.5 237t-184.5 75q-147 0 -256 -82l-88 166q121 109 363 108q211 0 308 -116.5t97 -370.5v-629h-182v104q-104 -133 -295 -133q-154 0 -268.5 97.5t-114.5 275.5zM236 344q0 -90 60 -140t167 -50q82 0 153.5 44 t98.5 97v147q-78 92 -248 93q-231 -1 -231 -191zM326 1348q0 74 52 126t124 52q74 0 127 -52.5t53 -125.5q0 -72 -53.5 -125.5t-126.5 -53.5q-72 0 -124 53.5t-52 125.5zM420 1348q0 -37 23.5 -60.5t58.5 -23.5t59.5 23.5t24.5 60.5q0 33 -24.5 57.5t-59.5 24.5t-58.5 -24.5 t-23.5 -57.5z" />
<glyph unicode="&#xe6;" horiz-adv-x="1675" d="M51 344q0 172 118 262t306 90q139 0 240 -75v108q0 92 -55.5 145.5t-153.5 53.5q-158 0 -275 -86l-88 166q121 109 365 108q236 0 326 -164q115 162 331 162q207 0 333 -150.5t126 -412.5q0 -31 -10 -72h-707q10 -154 85 -236.5t198 -82.5q135 0 225 102l129 -115 q-55 -80 -154.5 -129t-211.5 -49q-264 0 -387 217q-119 -215 -357 -215q-154 0 -268.5 97.5t-114.5 275.5zM244 344q0 -92 59 -141t166 -49q82 0 153.5 50t98.5 111v127q-78 92 -248 93q-229 -1 -229 -191zM913 639h504q-29 287 -252 287t-252 -287z" />
<glyph unicode="&#xe7;" horiz-adv-x="944" d="M49 543q0 276 133 424.5t353 148.5q125 0 221 -56t145 -157l-156 -141q-72 154 -221 153q-127 0 -200.5 -95t-73.5 -277.5t73.5 -277.5t200.5 -95q125 0 217 129l148 -131q-141 -197 -377 -197q-203 0 -333 150t-130 422zM332 -350l114 309h162l-184 -352z" />
<glyph unicode="&#xe8;" horiz-adv-x="1017" d="M49 543q0 276 124 424.5t335 148.5q205 0 331 -150.5t126 -412.5q0 -31 -11 -72h-706q10 -152 85 -235.5t197 -83.5q137 0 228 102l129 -114q-55 -80 -155.5 -129.5t-213.5 -49.5q-209 0 -339 150t-130 422zM254 641h506q-14 139 -80 213t-172 74q-225 0 -254 -287z M299 1454l92 119l322 -299l-64 -86z" />
<glyph unicode="&#xe9;" horiz-adv-x="1017" d="M49 543q0 276 124 424.5t335 148.5q205 0 331 -150.5t126 -412.5q0 -31 -11 -72h-706q10 -152 85 -235.5t197 -83.5q137 0 228 102l129 -114q-55 -80 -155.5 -129.5t-213.5 -49.5q-209 0 -339 150t-130 422zM254 641h506q-14 139 -80 213t-172 74q-225 0 -254 -287z M301 1274l322 299l92 -119l-350 -266z" />
<glyph unicode="&#xea;" horiz-adv-x="1017" d="M49 543q0 276 124 424.5t335 148.5q205 0 331 -150.5t126 -412.5q0 -31 -11 -72h-706q10 -152 85 -235.5t197 -83.5q137 0 228 102l129 -114q-55 -80 -155.5 -129.5t-213.5 -49.5q-209 0 -339 150t-130 422zM221 1260l287 292l287 -292l-64 -74l-223 186l-223 -186z M254 641h506q-14 139 -80 213t-172 74q-225 0 -254 -287z" />
<glyph unicode="&#xeb;" horiz-adv-x="1017" d="M49 543q0 276 124 424.5t335 148.5q205 0 331 -150.5t126 -412.5q0 -31 -11 -72h-706q10 -152 85 -235.5t197 -83.5q137 0 228 102l129 -114q-55 -80 -155.5 -129.5t-213.5 -49.5q-209 0 -339 150t-130 422zM227 1380q0 43 28 70t71 27t70.5 -27t27.5 -70 q0 -41 -27.5 -66.5t-70.5 -25.5t-71 25.5t-28 66.5zM254 641h506q-14 139 -80 213t-172 74q-225 0 -254 -287zM600 1380q0 43 25.5 70t66.5 27q45 0 70.5 -27t25.5 -70q0 -41 -25.5 -66.5t-70.5 -25.5q-41 0 -66.5 25.5t-25.5 66.5z" />
<glyph unicode="&#xec;" horiz-adv-x="346" d="M-35 1454l92 119l322 -299l-64 -86zM72 0v1087h202v-1087h-202z" />
<glyph unicode="&#xed;" horiz-adv-x="346" d="M-33 1274l322 299l92 -119l-350 -266zM72 0v1087h202v-1087h-202z" />
<glyph unicode="&#xee;" horiz-adv-x="346" d="M-113 1260l287 292l287 -292l-64 -74l-223 186l-223 -186zM72 0v1087h202v-1087h-202z" />
<glyph unicode="&#xef;" horiz-adv-x="346" d="M-106 1380q0 43 27.5 70t70.5 27t70.5 -27t27.5 -70q0 -41 -27.5 -66.5t-70.5 -25.5t-70.5 25.5t-27.5 66.5zM72 0v1087h202v-1087h-202zM266 1380q0 43 25.5 70t66.5 27q45 0 71 -27t26 -70q0 -41 -26 -66.5t-71 -25.5q-41 0 -66.5 25.5t-25.5 66.5z" />
<glyph unicode="&#xf0;" horiz-adv-x="1155" d="M51 535q0 248 147.5 388t366.5 140q143 0 250 -66q-59 109 -214 193t-296 102l35 183q358 -49 561 -285t203 -586q0 -121 -31 -230.5t-91 -201.5t-164.5 -146.5t-239.5 -54.5q-244 0 -385.5 164t-141.5 400zM248 553q0 -145 92 -261t238 -116q164 0 243.5 121t79.5 289 q0 102 -22 178q-123 117 -301 117q-131 0 -230.5 -87t-99.5 -241z" />
<glyph unicode="&#xf1;" horiz-adv-x="983" d="M72 0v1087h192v-104q115 133 297 133q154 0 252 -108.5t98 -309.5v-698h-202v659q0 256 -207 256q-145 0 -228 -190v-725h-202zM82 1341q29 88 95.5 145.5t135.5 57.5q59 0 112.5 -27.5t85.5 -59.5t71 -59.5t71 -27.5q86 0 154 164l92 -82q-29 -94 -102.5 -151.5 t-149.5 -57.5q-63 0 -121.5 42t-108.5 85t-93 43q-82 0 -150 -153z" />
<glyph unicode="&#xf2;" horiz-adv-x="1032" d="M49 542.5q0 274.5 128 424t337 149.5t337 -149.5t128 -424t-128 -423t-337 -148.5t-337 148.5t-128 423zM250 542.5q0 -182.5 69.5 -277.5t194.5 -95t195.5 95t70.5 277.5t-70.5 277.5t-195.5 95t-194.5 -95t-69.5 -277.5zM307 1454l92 119l322 -299l-64 -86z" />
<glyph unicode="&#xf3;" horiz-adv-x="1032" d="M49 542.5q0 274.5 128 424t337 149.5t337 -149.5t128 -424t-128 -423t-337 -148.5t-337 148.5t-128 423zM250 542.5q0 -182.5 69.5 -277.5t194.5 -95t195.5 95t70.5 277.5t-70.5 277.5t-195.5 95t-194.5 -95t-69.5 -277.5zM309 1274l322 299l92 -119l-350 -266z" />
<glyph unicode="&#xf4;" horiz-adv-x="1032" d="M49 542.5q0 274.5 128 424t337 149.5t337 -149.5t128 -424t-128 -423t-337 -148.5t-337 148.5t-128 423zM229 1260l287 292l287 -292l-64 -74l-223 186l-223 -186zM250 542.5q0 -182.5 69.5 -277.5t194.5 -95t195.5 95t70.5 277.5t-70.5 277.5t-195.5 95t-194.5 -95 t-69.5 -277.5z" />
<glyph unicode="&#xf5;" horiz-adv-x="1032" d="M49 542.5q0 274.5 128 424t337 149.5t337 -149.5t128 -424t-128 -423t-337 -148.5t-337 148.5t-128 423zM106 1341q29 88 95.5 145.5t136.5 57.5q59 0 112.5 -27.5t85 -59.5t70.5 -59.5t72 -27.5q86 0 153 164l93 -82q-29 -94 -102.5 -151.5t-149.5 -57.5 q-63 0 -121.5 42t-109 85t-93.5 43q-82 0 -149 -153zM250 542.5q0 -182.5 69.5 -277.5t194.5 -95t195.5 95t70.5 277.5t-70.5 277.5t-195.5 95t-194.5 -95t-69.5 -277.5z" />
<glyph unicode="&#xf6;" horiz-adv-x="1032" d="M49 542.5q0 274.5 128 424t337 149.5t337 -149.5t128 -424t-128 -423t-337 -148.5t-337 148.5t-128 423zM236 1380q0 43 27.5 70t70.5 27t70.5 -27t27.5 -70q0 -41 -27.5 -66.5t-70.5 -25.5t-70.5 25.5t-27.5 66.5zM250 542.5q0 -182.5 69.5 -277.5t194.5 -95t195.5 95 t70.5 277.5t-70.5 277.5t-195.5 95t-194.5 -95t-69.5 -277.5zM608 1380q0 43 25.5 70t66.5 27q45 0 71 -27t26 -70q0 -41 -26 -66.5t-71 -25.5q-41 0 -66.5 25.5t-25.5 66.5z" />
<glyph unicode="&#xf7;" horiz-adv-x="641" d="M16 471v127h605v-127h-605zM242 274.5q0 36.5 23.5 62t60.5 25.5q35 0 61.5 -26.5t26.5 -61t-27 -60.5t-61 -26q-37 0 -60.5 25t-23.5 61.5zM242 793q0 37 23.5 63.5t60.5 26.5q35 0 61.5 -27t26.5 -63q0 -35 -27 -59.5t-61 -24.5q-37 0 -60.5 24.5t-23.5 59.5z" />
<glyph unicode="&#xf8;" horiz-adv-x="1032" d="M51 543q0 274 128 423.5t337 149.5q70 0 135 -18l39 106h135l-57 -160q213 -143 213 -501q0 -274 -128 -423t-337 -149q-70 0 -131 19l-39 -107h-135l57 156q-217 137 -217 504zM248 551q0 -211 94 -305l242 667q-41 10 -68 11q-125 0 -196.5 -95.5t-71.5 -277.5z M449 170q31 -8 67 -8q121 0 194.5 88t73.5 250q0 242 -90 340z" />
<glyph unicode="&#xf9;" horiz-adv-x="962" d="M70 389v698h202v-591q0 -170 45 -247t154 -77q72 0 122 46t93 144v725h203v-1087h-193v104q-104 -133 -274 -133q-156 0 -254 107.5t-98 310.5zM272 1454l93 119l321 -299l-63 -86z" />
<glyph unicode="&#xfa;" horiz-adv-x="962" d="M70 389v698h202v-591q0 -170 45 -247t154 -77q72 0 122 46t93 144v725h203v-1087h-193v104q-104 -133 -274 -133q-156 0 -254 107.5t-98 310.5zM274 1274l322 299l92 -119l-350 -266z" />
<glyph unicode="&#xfb;" horiz-adv-x="962" d="M70 389v698h202v-591q0 -170 45 -247t154 -77q72 0 122 46t93 144v725h203v-1087h-193v104q-104 -133 -274 -133q-156 0 -254 107.5t-98 310.5zM195 1260l286 292l287 -292l-63 -74l-224 186l-223 -186z" />
<glyph unicode="&#xfc;" horiz-adv-x="962" d="M70 389v698h202v-591q0 -170 45 -247t154 -77q72 0 122 46t93 144v725h203v-1087h-193v104q-104 -133 -274 -133q-156 0 -254 107.5t-98 310.5zM201 1380q0 43 27.5 70t70.5 27t70.5 -27t27.5 -70q0 -41 -27.5 -66.5t-70.5 -25.5t-70.5 25.5t-27.5 66.5zM573 1380 q0 43 26 70t67 27q45 0 70.5 -27t25.5 -70q0 -41 -25.5 -66.5t-70.5 -25.5q-41 0 -67 25.5t-26 66.5z" />
<glyph unicode="&#xfd;" horiz-adv-x="976" d="M8 1087h225l256 -765l254 765h222l-533 -1480h-213l160 450zM281 1274l321 299l92 -119l-350 -266z" />
<glyph unicode="&#xfe;" horiz-adv-x="993" d="M72 -393v1816l202 70v-518q29 61 107 101t172 40q182 0 285.5 -147.5t103.5 -424t-111.5 -425t-295.5 -148.5q-182 0 -261 129v-426zM262 360q86 -195 230 -194q258 0 258 377q0 184 -66 281.5t-184 97.5q-154 0 -238 -207v-355z" />
<glyph unicode="&#xff;" horiz-adv-x="976" d="M8 1087h225l256 -765l254 765h222l-533 -1480h-213l160 450zM207 1380q0 43 27.5 70t70.5 27t70.5 -27t27.5 -70q0 -41 -27.5 -66.5t-70.5 -25.5t-70.5 25.5t-27.5 66.5zM580 1380q0 43 25.5 70t66.5 27q45 0 70.5 -27t25.5 -70q0 -41 -25.5 -66.5t-70.5 -25.5 q-41 0 -66.5 25.5t-25.5 66.5z" />
<glyph unicode="&#x152;" horiz-adv-x="1888" d="M53 706.5q0 350.5 160 545t410 194.5q293 0 436 -211v182h751v-205h-557v-387h357v-202h-357v-424h576v-199h-770v178q-143 -207 -436 -207q-250 0 -410 192.5t-160 543zM256 706.5q0 -264.5 104.5 -399.5t291 -135t292 137t105.5 398q0 264 -104.5 399t-293.5 135 q-186 0 -290.5 -135t-104.5 -399.5z" />
<glyph unicode="&#x153;" horiz-adv-x="1748" d="M51 542.5q0 274.5 128 424t337 149.5q246 0 365 -205q111 205 360 205q205 0 331 -150.5t126 -412.5q0 -31 -10 -72h-707q10 -152 85 -235.5t198 -83.5q137 0 227 102l129 -114q-55 -80 -155.5 -129.5t-213.5 -49.5q-252 0 -370 207q-113 -207 -365 -207 q-209 0 -337 148.5t-128 423zM252 542.5q0 -182.5 69.5 -277.5t194.5 -95t195.5 95t70.5 277.5t-70.5 277.5t-195.5 95t-194.5 -95t-69.5 -277.5zM987 641h506q-14 139 -79.5 213t-172.5 74q-225 0 -254 -287z" />
<glyph unicode="&#x178;" horiz-adv-x="1173" d="M8 1417h232l346 -741l346 741h229l-475 -981v-436h-203v438zM305 1739q0 43 27.5 69.5t70.5 26.5t71 -26.5t28 -69.5q0 -41 -28 -66.5t-71 -25.5t-70.5 25.5t-27.5 66.5zM678 1739q0 43 25.5 69.5t66.5 26.5q45 0 70.5 -26.5t25.5 -69.5q0 -41 -25.5 -66.5t-70.5 -25.5 q-41 0 -66.5 25.5t-25.5 66.5z" />
<glyph unicode="&#x2c6;" horiz-adv-x="630" d="M29 1260l286 292l287 -292l-63 -74l-224 186l-223 -186z" />
<glyph unicode="&#x2dc;" horiz-adv-x="911" d="M45 1341q29 88 95.5 145.5t135.5 57.5q59 0 112.5 -27.5t85.5 -59.5t71 -59.5t71 -27.5q86 0 154 164l92 -82q-29 -94 -102.5 -151.5t-149.5 -57.5q-63 0 -121.5 42t-108.5 85t-93 43q-82 0 -150 -153z" />
<glyph unicode="&#x2000;" horiz-adv-x="964" />
<glyph unicode="&#x2001;" horiz-adv-x="1931" />
<glyph unicode="&#x2002;" horiz-adv-x="964" />
<glyph unicode="&#x2003;" horiz-adv-x="1931" />
<glyph unicode="&#x2004;" horiz-adv-x="643" />
<glyph unicode="&#x2005;" horiz-adv-x="481" />
<glyph unicode="&#x2006;" horiz-adv-x="321" />
<glyph unicode="&#x2007;" horiz-adv-x="321" />
<glyph unicode="&#x2008;" horiz-adv-x="239" />
<glyph unicode="&#x2009;" horiz-adv-x="385" />
<glyph unicode="&#x200a;" horiz-adv-x="106" />
<glyph unicode="&#x2010;" horiz-adv-x="768" d="M66 457v166h630v-166h-630z" />
<glyph unicode="&#x2011;" horiz-adv-x="768" d="M66 457v166h630v-166h-630z" />
<glyph unicode="&#x2012;" horiz-adv-x="768" d="M66 457v166h630v-166h-630z" />
<glyph unicode="&#x2013;" horiz-adv-x="1060" d="M68 457v166h923v-166h-923z" />
<glyph unicode="&#x2014;" horiz-adv-x="1556" d="M68 457v166h1421v-166h-1421z" />
<glyph unicode="&#x2018;" horiz-adv-x="362" d="M18 1393l175 69l139 -415l-125 -58z" />
<glyph unicode="&#x2019;" horiz-adv-x="362" d="M29 1047l139 415l174 -69l-188 -404z" />
<glyph unicode="&#x201a;" horiz-adv-x="362" d="M29 -262l139 416l174 -70l-188 -403z" />
<glyph unicode="&#x201c;" horiz-adv-x="690" d="M37 1391l174 69l139 -416l-125 -57zM330 1391l174 69l139 -416l-125 -57z" />
<glyph unicode="&#x201d;" horiz-adv-x="692" d="M45 1047l139 415l176 -69l-190 -404zM340 1047l137 415l176 -69l-190 -404z" />
<glyph unicode="&#x201e;" horiz-adv-x="690" d="M45 -260l139 414l174 -68l-188 -405zM338 -260l139 414l174 -68l-188 -405z" />
<glyph unicode="&#x2022;" horiz-adv-x="696" d="M47 723q0 119 88 204t213 85t213 -85t88 -204t-88 -204t-213 -85t-213 85t-88 204z" />
<glyph unicode="&#x2026;" horiz-adv-x="1966" d="M63 76q0 45 29 76.5t76 31.5q43 0 75.5 -32.5t32.5 -75.5t-32.5 -74t-75.5 -31q-47 0 -76 30t-29 75zM877 76q0 43 30.5 75.5t73.5 32.5q45 0 77 -32.5t32 -75.5t-32 -74t-77 -31t-74.5 31t-29.5 74zM1690 76q0 45 28.5 76.5t75.5 31.5q43 0 76 -32.5t33 -75.5t-33 -74 t-76 -31q-47 0 -75.5 30t-28.5 75z" />
<glyph unicode="&#x202f;" horiz-adv-x="385" />
<glyph unicode="&#x2039;" horiz-adv-x="385" d="M39 481v111l303 256v-154l-201 -157l201 -160v-152z" />
<glyph unicode="&#x203a;" horiz-adv-x="405" d="M53 225v152l199 160l-199 157v154l303 -256v-111z" />
<glyph unicode="&#x205f;" horiz-adv-x="481" />
<glyph unicode="&#x20ac;" horiz-adv-x="1308" d="M25 420l116 166h80q-4 106 -4 170q0 33 4 49h-196l116 168h105q55 231 203.5 352t363.5 121q236 0 418 -178l-96 -144q-141 154 -322 154q-297 0 -393 -305h610l-108 -168h-535q-4 -18 -4 -60q0 -127 6 -159h389l-106 -166h-244q98 -285 385 -285q184 0 307 137l140 -86 q-178 -215 -447 -215q-207 0 -354.5 115t-206.5 334h-227z" />
<glyph unicode="&#x2122;" horiz-adv-x="1703" d="M49 1288v127h647v-127h-247v-708h-127v708h-273zM831 578v837h170l232 -569l233 569h170v-837h-127v610l-249 -610h-50l-249 610v-610h-130z" />
<glyph unicode="&#xfb01;" horiz-adv-x="833" d="M547 1356q0 45 30.5 77.5t73.5 32.5q45 0 77 -32.5t32 -77.5q0 -43 -32 -74t-77 -31t-74.5 31t-29.5 74zM551 0v1087h204v-1087h-204zM2 915v172h102v134q0 264 234 264q68 0 131 -23v-176q-35 18 -84 19q-39 0 -57.5 -21.5t-18.5 -75.5v-121h160v-172h-160v-915h-205 v915h-102z" />
<glyph unicode="&#xfb02;" horiz-adv-x="827" d="M551 0v1423l202 70v-1493h-202zM2 915v172h102v134q0 264 234 264q68 0 131 -23v-176q-35 18 -84 19q-39 0 -57.5 -21.5t-18.5 -75.5v-121h160v-172h-160v-915h-205v915h-102z" />
<glyph unicode="&#xfb03;" horiz-adv-x="1312" d="M1026 1356q0 45 30.5 77.5t73.5 32.5q45 0 77 -32.5t32 -77.5q0 -43 -32 -74t-77 -31t-74.5 31t-29.5 74zM1030 0v1087h204v-1087h-204zM481 915v172h102v134q0 264 234 264q68 0 131 -23v-176q-35 18 -84 19q-39 0 -57.5 -21.5t-18.5 -75.5v-121h160v-172h-160v-915 h-205v915h-102zM2 915v172h102v134q0 264 234 264q68 0 131 -23v-176q-35 18 -84 19q-39 0 -57.5 -21.5t-18.5 -75.5v-121h160v-172h-160v-915h-205v915h-102z" />
<glyph unicode="&#xfb04;" horiz-adv-x="1306" d="M1030 0v1423l202 70v-1493h-202zM481 915v172h102v134q0 264 234 264q68 0 131 -23v-176q-35 18 -84 19q-39 0 -57.5 -21.5t-18.5 -75.5v-121h160v-172h-160v-915h-205v915h-102zM2 915v172h102v134q0 264 234 264q68 0 131 -23v-176q-35 18 -84 19q-39 0 -57.5 -21.5 t-18.5 -75.5v-121h160v-172h-160v-915h-205v915h-102z" />
</font>
</defs>
</svg>
